<svg width="35" height="35" viewBox="0 0 35 35" fill="none" xmlns="http://www.w3.org/2000/svg">
<path d="M34.9974 9.16934C34.9987 8.93905 34.9546 8.71076 34.8675 8.49756C34.7804 8.28436 34.6521 8.09045 34.49 7.92694L27.0705 0.507491C26.907 0.345311 26.7131 0.217001 26.4999 0.12992C26.2867 0.0428383 26.0584 -0.00130222 25.8281 2.92478e-05C25.5978 -0.00130222 25.3695 0.0428383 25.1563 0.12992C24.9431 0.217001 24.7492 0.345311 24.5857 0.507491L19.6336 5.45962L0.507491 24.5857C0.345311 24.7492 0.217001 24.9431 0.12992 25.1563C0.0428383 25.3695 -0.00130222 25.5978 2.92478e-05 25.8281V33.2475C2.92478e-05 33.7116 0.18439 34.1567 0.512554 34.4849C0.840718 34.8131 1.2858 34.9974 1.7499 34.9974H9.16934C9.4142 35.0107 9.65912 34.9724 9.88823 34.885C10.1173 34.7976 10.3255 34.663 10.4992 34.49L29.5203 15.3639L34.49 10.4992C34.6497 10.3296 34.7798 10.1345 34.8749 9.92179C34.8918 9.78231 34.8918 9.6413 34.8749 9.50182C34.8831 9.42036 34.8831 9.33829 34.8749 9.25684L34.9974 9.16934ZM8.4519 31.4977H3.49977V26.5455L20.876 9.16934L25.8281 14.1215L8.4519 31.4977ZM28.2954 11.6542L23.3433 6.70203L25.8281 4.23471L30.7627 9.16934L28.2954 11.6542Z" fill="white"/>
</svg>
